<?xml version="1.0" standalone="no"?>
<!DOCTYPE svg PUBLIC "-//W3C//DTD SVG 1.1//EN" "http://www.w3.org/Graphics/SVG/1.1/DTD/svg11.dtd">
<!--Generator: Xara Designer (www.xara.com), SVG filter version: 6.1.0.16-->
<svg stroke-width="0.501" stroke-linejoin="bevel" fill-rule="evenodd" xmlns:xlink="http://www.w3.org/1999/xlink" xmlns="http://www.w3.org/2000/svg" version="1.1" overflow="visible" width="720pt" height="720pt" viewBox="0 0 720 720">
 <defs>
  <linearGradient id="LinearGradient" gradientUnits="userSpaceOnUse" x1="0" y1="0" x2="60.812" y2="39.199" gradientTransform="translate(280.517 271.803)">
   <stop offset="0" stop-color="#00bf02"/>
   <stop offset="1" stop-color="#005e01"/>
  </linearGradient>
  <linearGradient id="LinearGradient_1" gradientUnits="userSpaceOnUse" x1="0" y1="0" x2="3.541" y2="-72.264" gradientTransform="translate(365.645 400.59)">
   <stop offset="0" stop-color="#00bf02"/>
   <stop offset="1" stop-color="#005e01"/>
  </linearGradient>
  <linearGradient id="LinearGradient_2" gradientUnits="userSpaceOnUse" x1="0" y1="0" x2="-64.353" y2="33.065" gradientTransform="translate(434.457 262.115)">
   <stop offset="0" stop-color="#00bf02"/>
   <stop offset="1" stop-color="#005e01"/>
  </linearGradient>
  <linearGradient id="LinearGradient_3" gradientUnits="userSpaceOnUse" x1="0" y1="0" x2="60.812" y2="39.199" gradientTransform="translate(280.517 271.803)">
   <stop offset="0" stop-color="#00bf02"/>
   <stop offset="1" stop-color="#005e01"/>
  </linearGradient>
  <linearGradient id="LinearGradient_4" gradientUnits="userSpaceOnUse" x1="0" y1="0" x2="3.541" y2="-72.264" gradientTransform="translate(365.645 400.59)">
   <stop offset="0" stop-color="#00bf02"/>
   <stop offset="1" stop-color="#005e01"/>
  </linearGradient>
  <linearGradient id="LinearGradient_5" gradientUnits="userSpaceOnUse" x1="0" y1="0" x2="-64.353" y2="33.065" gradientTransform="translate(434.457 262.115)">
   <stop offset="0" stop-color="#00bf02"/>
   <stop offset="1" stop-color="#005e01"/>
  </linearGradient>
  <linearGradient id="LinearGradient_6" gradientUnits="userSpaceOnUse" x1="0" y1="0" x2="60.812" y2="39.199" gradientTransform="translate(280.517 271.803)">
   <stop offset="0" stop-color="#00bf02"/>
   <stop offset="1" stop-color="#005e01"/>
  </linearGradient>
  <linearGradient id="LinearGradient_7" gradientUnits="userSpaceOnUse" x1="0" y1="0" x2="3.541" y2="-72.264" gradientTransform="translate(365.645 400.59)">
   <stop offset="0" stop-color="#00bf02"/>
   <stop offset="1" stop-color="#005e01"/>
  </linearGradient>
  <linearGradient id="LinearGradient_8" gradientUnits="userSpaceOnUse" x1="0" y1="0" x2="-64.353" y2="33.065" gradientTransform="translate(434.457 262.115)">
   <stop offset="0" stop-color="#00bf02"/>
   <stop offset="1" stop-color="#005e01"/>
  </linearGradient>
  <linearGradient id="LinearGradient_9" gradientUnits="userSpaceOnUse" x1="0" y1="0" x2="60.812" y2="39.199" gradientTransform="translate(280.517 271.803)">
   <stop offset="0" stop-color="#00bf02"/>
   <stop offset="1" stop-color="#005e01"/>
  </linearGradient>
  <linearGradient id="LinearGradient_10" gradientUnits="userSpaceOnUse" x1="0" y1="0" x2="3.541" y2="-72.264" gradientTransform="translate(365.645 400.59)">
   <stop offset="0" stop-color="#00bf02"/>
   <stop offset="1" stop-color="#005e01"/>
  </linearGradient>
  <linearGradient id="LinearGradient_11" gradientUnits="userSpaceOnUse" x1="0" y1="0" x2="-64.353" y2="33.065" gradientTransform="translate(434.457 262.115)">
   <stop offset="0" stop-color="#00bf02"/>
   <stop offset="1" stop-color="#005e01"/>
  </linearGradient>
  <linearGradient id="LinearGradient_12" gradientUnits="userSpaceOnUse" x1="0" y1="0" x2="60.812" y2="39.199" gradientTransform="translate(280.517 271.803)">
   <stop offset="0" stop-color="#00bf02"/>
   <stop offset="1" stop-color="#005e01"/>
  </linearGradient>
  <linearGradient id="LinearGradient_13" gradientUnits="userSpaceOnUse" x1="0" y1="0" x2="3.541" y2="-72.264" gradientTransform="translate(365.645 400.59)">
   <stop offset="0" stop-color="#00bf02"/>
   <stop offset="1" stop-color="#005e01"/>
  </linearGradient>
  <linearGradient id="LinearGradient_14" gradientUnits="userSpaceOnUse" x1="0" y1="0" x2="-64.353" y2="33.065" gradientTransform="translate(434.457 262.115)">
   <stop offset="0" stop-color="#00bf02"/>
   <stop offset="1" stop-color="#005e01"/>
  </linearGradient>
  <linearGradient id="LinearGradient_15" gradientUnits="userSpaceOnUse" x1="0" y1="0" x2="60.812" y2="39.199" gradientTransform="translate(280.517 271.803)">
   <stop offset="0" stop-color="#00bf02"/>
   <stop offset="1" stop-color="#005e01"/>
  </linearGradient>
  <linearGradient id="LinearGradient_16" gradientUnits="userSpaceOnUse" x1="0" y1="0" x2="3.541" y2="-72.264" gradientTransform="translate(365.645 400.59)">
   <stop offset="0" stop-color="#00bf02"/>
   <stop offset="1" stop-color="#005e01"/>
  </linearGradient>
  <linearGradient id="LinearGradient_17" gradientUnits="userSpaceOnUse" x1="0" y1="0" x2="-64.353" y2="33.065" gradientTransform="translate(434.457 262.115)">
   <stop offset="0" stop-color="#00bf02"/>
   <stop offset="1" stop-color="#005e01"/>
  </linearGradient>
  <linearGradient id="LinearGradient_18" gradientUnits="userSpaceOnUse" x1="0" y1="0" x2="60.812" y2="39.199" gradientTransform="translate(280.517 271.803)">
   <stop offset="0" stop-color="#00bf02"/>
   <stop offset="1" stop-color="#005e01"/>
  </linearGradient>
  <linearGradient id="LinearGradient_19" gradientUnits="userSpaceOnUse" x1="0" y1="0" x2="3.541" y2="-72.264" gradientTransform="translate(365.645 400.59)">
   <stop offset="0" stop-color="#00bf02"/>
   <stop offset="1" stop-color="#005e01"/>
  </linearGradient>
  <linearGradient id="LinearGradient_20" gradientUnits="userSpaceOnUse" x1="0" y1="0" x2="-64.353" y2="33.065" gradientTransform="translate(434.457 262.115)">
   <stop offset="0" stop-color="#00bf02"/>
   <stop offset="1" stop-color="#005e01"/>
  </linearGradient>
  <linearGradient id="LinearGradient_21" gradientUnits="userSpaceOnUse" x1="0" y1="0" x2="60.812" y2="39.199" gradientTransform="translate(280.517 271.803)">
   <stop offset="0" stop-color="#00bf02"/>
   <stop offset="1" stop-color="#005e01"/>
  </linearGradient>
  <linearGradient id="LinearGradient_22" gradientUnits="userSpaceOnUse" x1="0" y1="0" x2="3.541" y2="-72.264" gradientTransform="translate(365.645 400.59)">
   <stop offset="0" stop-color="#00bf02"/>
   <stop offset="1" stop-color="#005e01"/>
  </linearGradient>
  <linearGradient id="LinearGradient_23" gradientUnits="userSpaceOnUse" x1="0" y1="0" x2="-64.353" y2="33.065" gradientTransform="translate(434.457 262.115)">
   <stop offset="0" stop-color="#00bf02"/>
   <stop offset="1" stop-color="#005e01"/>
  </linearGradient>
 </defs>
 <g id="Document" fill="none" stroke="black" font-family="Times New Roman" font-size="16" transform="scale(1 -1)">
  <g id="Spread" transform="translate(0 -720)">
   <g id="Layer 1">
    <g id="Group" stroke-linejoin="miter" stroke-linecap="round" stroke="none" stroke-width="5.944" stroke-miterlimit="79.8403193612775">
     <g id="Group_1" stroke-opacity="0.474510" fill-opacity="0.474510" fill="url(#LinearGradient)">
      <path d="M 502.177,166.658 L 0.684,166.66 L 306.177,695.792 L 415.061,695.792 L 164.344,261.524 L 446.593,261.535 L 447.039,261.532 L 501.429,167.096 L 501.429,166.66 L 502.177,166.658 Z" marker-start="none" marker-end="none" fill-opacity="0.474510"/>
     </g>
     <g id="Group_2" stroke-opacity="0.474510" fill-opacity="0.474510" fill="url(#LinearGradient_1)">
      <path d="M 163.756,261.199 L 414.505,695.505 L 720.001,166.374 L 665.559,72.078 L 414.83,506.339 L 273.714,261.898 L 273.489,261.513 L 164.51,261.629 L 164.133,261.846 L 163.756,261.199 Z" marker-start="none" marker-end="none" fill-opacity="0.474510"/>
     </g>
     <mask id="TranspMask">
      <rect x="-10%" y="-10%" width="120%" height="120%" fill="#b0b0b0" stroke="none"/>
     </mask>
     <g id="Group_3" stroke-opacity="0.474510" mask="url(#TranspMask)" fill="url(#LinearGradient_2)">
      <path d="M 414.686,506.651 L 665.43,72.343 L 54.442,72.342 L 0,166.639 L 501.446,166.645 L 360.312,411.076 L 360.091,411.463 L 414.681,505.784 L 415.058,506.002 L 414.686,506.651 Z" marker-start="none" marker-end="none" fill-opacity="0.474510"/>
     </g>
     <g id="Group_4" stroke-opacity="0.474510" fill-opacity="0.474510" fill="url(#LinearGradient_3)">
      <path d="M 502.177,166.658 L 0.684,166.66 L 306.177,695.792 L 415.061,695.792 L 164.344,261.524 L 446.593,261.535 L 447.039,261.532 L 501.429,167.096 L 501.429,166.66 L 502.177,166.658 Z" marker-start="none" marker-end="none" fill-opacity="0.474510"/>
     </g>
     <g id="Group_5" stroke-opacity="0.474510" fill-opacity="0.474510" fill="url(#LinearGradient_4)">
      <path d="M 163.756,261.199 L 414.505,695.505 L 720.001,166.374 L 665.559,72.078 L 414.83,506.339 L 273.714,261.898 L 273.489,261.513 L 164.51,261.629 L 164.133,261.846 L 163.756,261.199 Z" marker-start="none" marker-end="none" fill-opacity="0.474510"/>
     </g>
     <mask id="TranspMask_1">
      <rect x="-10%" y="-10%" width="120%" height="120%" fill="#b0b0b0" stroke="none"/>
     </mask>
     <g id="Group_6" stroke-opacity="0.474510" mask="url(#TranspMask_1)" fill="url(#LinearGradient_5)">
      <path d="M 414.686,506.651 L 665.43,72.343 L 54.442,72.342 L 0,166.639 L 501.446,166.645 L 360.312,411.076 L 360.091,411.463 L 414.681,505.784 L 415.058,506.002 L 414.686,506.651 Z" marker-start="none" marker-end="none" fill-opacity="0.474510"/>
     </g>
     <g id="Group_7" stroke-opacity="0.474510" fill-opacity="0.474510" fill="url(#LinearGradient_6)">
      <path d="M 502.177,166.658 L 0.684,166.66 L 306.177,695.792 L 415.061,695.792 L 164.344,261.524 L 446.593,261.535 L 447.039,261.532 L 501.429,167.096 L 501.429,166.66 L 502.177,166.658 Z" marker-start="none" marker-end="none" fill-opacity="0.474510"/>
     </g>
     <g id="Group_8" stroke-opacity="0.474510" fill-opacity="0.474510" fill="url(#LinearGradient_7)">
      <path d="M 163.756,261.199 L 414.505,695.505 L 720.001,166.374 L 665.559,72.078 L 414.83,506.339 L 273.714,261.898 L 273.489,261.513 L 164.51,261.629 L 164.133,261.846 L 163.756,261.199 Z" marker-start="none" marker-end="none" fill-opacity="0.474510"/>
     </g>
     <mask id="TranspMask_2">
      <rect x="-10%" y="-10%" width="120%" height="120%" fill="#b0b0b0" stroke="none"/>
     </mask>
     <g id="Group_9" stroke-opacity="0.474510" mask="url(#TranspMask_2)" fill="url(#LinearGradient_8)">
      <path d="M 414.686,506.651 L 665.43,72.343 L 54.442,72.342 L 0,166.639 L 501.446,166.645 L 360.312,411.076 L 360.091,411.463 L 414.681,505.784 L 415.058,506.002 L 414.686,506.651 Z" marker-start="none" marker-end="none" fill-opacity="0.474510"/>
     </g>
     <g id="Group_10" stroke-opacity="0.474510" fill-opacity="0.474510" fill="url(#LinearGradient_9)">
      <path d="M 502.177,166.658 L 0.684,166.66 L 306.177,695.792 L 415.061,695.792 L 164.344,261.524 L 446.593,261.535 L 447.039,261.532 L 501.429,167.096 L 501.429,166.66 L 502.177,166.658 Z" marker-start="none" marker-end="none" fill-opacity="0.474510"/>
     </g>
     <g id="Group_11" stroke-opacity="0.474510" fill-opacity="0.474510" fill="url(#LinearGradient_10)">
      <path d="M 163.756,261.199 L 414.505,695.505 L 720.001,166.374 L 665.559,72.078 L 414.83,506.339 L 273.714,261.898 L 273.489,261.513 L 164.51,261.629 L 164.133,261.846 L 163.756,261.199 Z" marker-start="none" marker-end="none" fill-opacity="0.474510"/>
     </g>
     <mask id="TranspMask_3">
      <rect x="-10%" y="-10%" width="120%" height="120%" fill="#b0b0b0" stroke="none"/>
     </mask>
     <g id="Group_12" stroke-opacity="0.474510" mask="url(#TranspMask_3)" fill="url(#LinearGradient_11)">
      <path d="M 414.686,506.651 L 665.43,72.343 L 54.442,72.342 L 0,166.639 L 501.446,166.645 L 360.312,411.076 L 360.091,411.463 L 414.681,505.784 L 415.058,506.002 L 414.686,506.651 Z" marker-start="none" marker-end="none" fill-opacity="0.474510"/>
     </g>
     <g id="Group_13" stroke-opacity="0.474510" fill-opacity="0.474510" fill="url(#LinearGradient_12)">
      <path d="M 502.177,166.658 L 0.684,166.66 L 306.177,695.792 L 415.061,695.792 L 164.344,261.524 L 446.593,261.535 L 447.039,261.532 L 501.429,167.096 L 501.429,166.66 L 502.177,166.658 Z" marker-start="none" marker-end="none" fill-opacity="0.474510"/>
     </g>
     <g id="Group_14" stroke-opacity="0.474510" fill-opacity="0.474510" fill="url(#LinearGradient_13)">
      <path d="M 163.756,261.199 L 414.505,695.505 L 720.001,166.374 L 665.559,72.078 L 414.83,506.339 L 273.714,261.898 L 273.489,261.513 L 164.51,261.629 L 164.133,261.846 L 163.756,261.199 Z" marker-start="none" marker-end="none" fill-opacity="0.474510"/>
     </g>
     <mask id="TranspMask_4">
      <rect x="-10%" y="-10%" width="120%" height="120%" fill="#b0b0b0" stroke="none"/>
     </mask>
     <g id="Group_15" stroke-opacity="0.474510" mask="url(#TranspMask_4)" fill="url(#LinearGradient_14)">
      <path d="M 414.686,506.651 L 665.43,72.343 L 54.442,72.342 L 0,166.639 L 501.446,166.645 L 360.312,411.076 L 360.091,411.463 L 414.681,505.784 L 415.058,506.002 L 414.686,506.651 Z" marker-start="none" marker-end="none" fill-opacity="0.474510"/>
     </g>
     <g id="Group_16" stroke-opacity="0.474510" fill-opacity="0.474510" fill="url(#LinearGradient_15)">
      <path d="M 502.177,166.658 L 0.684,166.66 L 306.177,695.792 L 415.061,695.792 L 164.344,261.524 L 446.593,261.535 L 447.039,261.532 L 501.429,167.096 L 501.429,166.66 L 502.177,166.658 Z" marker-start="none" marker-end="none" fill-opacity="0.474510"/>
     </g>
     <g id="Group_17" stroke-opacity="0.474510" fill-opacity="0.474510" fill="url(#LinearGradient_16)">
      <path d="M 163.756,261.199 L 414.505,695.505 L 720.001,166.374 L 665.559,72.078 L 414.83,506.339 L 273.714,261.898 L 273.489,261.513 L 164.51,261.629 L 164.133,261.846 L 163.756,261.199 Z" marker-start="none" marker-end="none" fill-opacity="0.474510"/>
     </g>
     <mask id="TranspMask_5">
      <rect x="-10%" y="-10%" width="120%" height="120%" fill="#b0b0b0" stroke="none"/>
     </mask>
     <g id="Group_18" stroke-opacity="0.474510" mask="url(#TranspMask_5)" fill="url(#LinearGradient_17)">
      <path d="M 414.686,506.651 L 665.43,72.343 L 54.442,72.342 L 0,166.639 L 501.446,166.645 L 360.312,411.076 L 360.091,411.463 L 414.681,505.784 L 415.058,506.002 L 414.686,506.651 Z" marker-start="none" marker-end="none" fill-opacity="0.474510"/>
     </g>
     <g id="Group_19" stroke-opacity="0.474510" fill-opacity="0.474510" fill="url(#LinearGradient_18)">
      <path d="M 502.177,166.658 L 0.684,166.66 L 306.177,695.792 L 415.061,695.792 L 164.344,261.524 L 446.593,261.535 L 447.039,261.532 L 501.429,167.096 L 501.429,166.66 L 502.177,166.658 Z" marker-start="none" marker-end="none" fill-opacity="0.474510"/>
     </g>
     <g id="Group_20" stroke-opacity="0.474510" fill-opacity="0.474510" fill="url(#LinearGradient_19)">
      <path d="M 163.756,261.199 L 414.505,695.505 L 720.001,166.374 L 665.559,72.078 L 414.83,506.339 L 273.714,261.898 L 273.489,261.513 L 164.51,261.629 L 164.133,261.846 L 163.756,261.199 Z" marker-start="none" marker-end="none" fill-opacity="0.474510"/>
     </g>
     <mask id="TranspMask_6">
      <rect x="-10%" y="-10%" width="120%" height="120%" fill="#b0b0b0" stroke="none"/>
     </mask>
     <g id="Group_21" stroke-opacity="0.474510" mask="url(#TranspMask_6)" fill="url(#LinearGradient_20)">
      <path d="M 414.686,506.651 L 665.43,72.343 L 54.442,72.342 L 0,166.639 L 501.446,166.645 L 360.312,411.076 L 360.091,411.463 L 414.681,505.784 L 415.058,506.002 L 414.686,506.651 Z" marker-start="none" marker-end="none" fill-opacity="0.474510"/>
     </g>
     <g id="Group_22" stroke-opacity="0.474510" fill-opacity="0.474510" fill="url(#LinearGradient_21)">
      <path d="M 502.177,166.658 L 0.684,166.66 L 306.177,695.792 L 415.061,695.792 L 164.344,261.524 L 446.593,261.535 L 447.039,261.532 L 501.429,167.096 L 501.429,166.66 L 502.177,166.658 Z" marker-start="none" marker-end="none" fill-opacity="0.474510"/>
     </g>
     <g id="Group_23" stroke-opacity="0.474510" fill-opacity="0.474510" fill="url(#LinearGradient_22)">
      <path d="M 163.756,261.199 L 414.505,695.505 L 720.001,166.374 L 665.559,72.078 L 414.83,506.339 L 273.714,261.898 L 273.489,261.513 L 164.51,261.629 L 164.133,261.846 L 163.756,261.199 Z" marker-start="none" marker-end="none" fill-opacity="0.474510"/>
     </g>
     <mask id="TranspMask_7">
      <rect x="-10%" y="-10%" width="120%" height="120%" fill="#b0b0b0" stroke="none"/>
     </mask>
     <g id="Group_24" stroke-opacity="0.474510" mask="url(#TranspMask_7)" fill="url(#LinearGradient_23)">
      <path d="M 414.686,506.651 L 665.43,72.343 L 54.442,72.342 L 0,166.639 L 501.446,166.645 L 360.312,411.076 L 360.091,411.463 L 414.681,505.784 L 415.058,506.002 L 414.686,506.651 Z" marker-start="none" marker-end="none" fill-opacity="0.474510"/>
     </g>
    </g>
   </g>
  </g>
 </g>
</svg>
